<svg xmlns="http://www.w3.org/2000/svg" viewBox="0 0 98 96" width="32" height="32"><path fill="#fff" d="M49 0C21.9 0 0 21.8 0 48.7c0 21.5 13.8 39.7 33 46.1 2.4.4 3.3-1 3.3-2.3 0-1.1 0-4.1-.1-8-13.4 2.9-16.2-6.5-16.2-6.5-2.2-5.6-5.3-7.1-5.3-7.1-4.3-2.9.3-2.8.3-2.8 4.7.3 7.2 4.8 7.2 4.8 4.2 7.2 11 5.1 13.7 3.9.4-3 1.6-5.1 2.9-6.3-10.7-1.2-21.9-5.3-21.9-23.7 0-5.2 1.9-9.4 4.9-12.7-.5-1.2-2.1-6.1.5-12.7 0 0 4-1.3 13.1 4.8 3.8-1.1 7.8-1.7 11.8-1.7s8 .6 11.8 1.7c9.1-6.1 13.1-4.8 13.1-4.8 2.6 6.6 1 11.5.5 12.7 3 3.3 4.9 7.5 4.9 12.7 0 18.5-11.2 22.5-21.9 23.7 1.7 1.5 3.2 4.5 3.2 9.1 0 6.6-.1 11.9-.1 13.5 0 1.3.9 2.7 3.3 2.3C84.2 88.4 98 70.2 98 48.7 98 21.8 76.1 0 49 0z"/></svg>